<svg width="75" height="75" viewBox="0 0 75 75" fill="none" xmlns="http://www.w3.org/2000/svg">
<g clip-path="url(#clip0_893_675)">
<path d="M25.7812 67.9688H49.2188" stroke="#BFBFBF" stroke-width="2.5" stroke-linecap="round" stroke-linejoin="round"/>
<path d="M23.057 48.9258C20.2708 46.7492 18.014 43.9696 16.4563 40.7957C14.8985 37.6218 14.0802 34.1361 14.0629 30.6006C13.9925 17.8975 24.2347 7.32423 36.9349 7.03126C41.8568 6.91204 46.6913 8.34581 50.7524 11.1291C54.8135 13.9124 57.895 17.904 59.5596 22.5374C61.2243 27.1708 61.3875 32.2107 60.0263 36.9421C58.665 41.6735 55.8484 45.8561 51.9759 48.8965C51.1218 49.5588 50.4297 50.4068 49.952 51.3763C49.4744 52.3458 49.2237 53.4114 49.2191 54.4922V56.25C49.2191 56.8716 48.9722 57.4678 48.5326 57.9073C48.0931 58.3468 47.497 58.5938 46.8754 58.5938H28.1254C27.5038 58.5938 26.9076 58.3468 26.4681 57.9073C26.0285 57.4678 25.7816 56.8716 25.7816 56.25V54.4922C25.7805 53.4183 25.5345 52.3588 25.0624 51.3942C24.5903 50.4297 23.9044 49.5855 23.057 48.9258Z" fill="#FFD24C" stroke="#434343" stroke-width="2.5" stroke-linecap="round" stroke-linejoin="round"/>
<path d="M39.8438 16.4062C45.7031 17.3936 50.5693 22.2656 51.5625 28.125" stroke="#434343" stroke-width="2.5" stroke-linecap="round" stroke-linejoin="round"/>
</g>
<defs>
<clipPath id="clip0_893_675">
<rect width="75" height="75" fill="white"/>
</clipPath>
</defs>
</svg>
