<svg width="230" height="28" viewBox="0 0 230 28" fill="none" xmlns="http://www.w3.org/2000/svg">
<path d="M0.278409 5.3821V0.818181H21.7812V5.3821H13.7656V27H8.29403V5.3821H0.278409ZM32.0414 27.3835C30.0215 27.3835 28.2829 26.9744 26.8255 26.1562C25.3766 25.3295 24.2601 24.1619 23.476 22.6534C22.6919 21.1364 22.2999 19.3423 22.2999 17.2713C22.2999 15.2514 22.6919 13.4787 23.476 11.9531C24.2601 10.4276 25.3638 9.23864 26.7871 8.38636C28.2189 7.53409 29.8979 7.10795 31.824 7.10795C33.1195 7.10795 34.3255 7.31676 35.4419 7.73438C36.5669 8.14347 37.5471 8.76136 38.3823 9.58807C39.226 10.4148 39.8823 11.4545 40.351 12.7074C40.8198 13.9517 41.0542 15.4091 41.0542 17.0795V18.5753H24.4732V15.2003H35.9277C35.9277 14.4162 35.7573 13.7216 35.4164 13.1165C35.0755 12.5114 34.6025 12.0384 33.9973 11.6974C33.4008 11.348 32.7062 11.1733 31.9135 11.1733C31.0868 11.1733 30.3539 11.3651 29.7147 11.7486C29.084 12.1236 28.5897 12.6307 28.2317 13.2699C27.8738 13.9006 27.6905 14.6037 27.682 15.3793V18.5881C27.682 19.5597 27.861 20.3991 28.2189 21.1065C28.5854 21.8139 29.101 22.3594 29.7658 22.7429C30.4306 23.1264 31.2189 23.3182 32.1309 23.3182C32.736 23.3182 33.29 23.233 33.7928 23.0625C34.2956 22.892 34.726 22.6364 35.084 22.2955C35.4419 21.9545 35.7147 21.5369 35.9022 21.0426L40.9391 21.375C40.6834 22.5852 40.1593 23.642 39.3667 24.5455C38.5826 25.4403 37.5684 26.1392 36.324 26.642C35.0883 27.1364 33.6607 27.3835 32.0414 27.3835ZM54.2003 27.3835C52.1889 27.3835 50.4588 26.9574 49.01 26.1051C47.5696 25.2443 46.4617 24.0511 45.6861 22.5256C44.919 21 44.5355 19.2443 44.5355 17.2585C44.5355 15.2472 44.9233 13.483 45.6989 11.9659C46.483 10.4403 47.5952 9.25142 49.0355 8.39915C50.4759 7.53835 52.1889 7.10795 54.1747 7.10795C55.8878 7.10795 57.3878 7.41903 58.6747 8.04119C59.9617 8.66335 60.9801 9.53693 61.7301 10.6619C62.4801 11.7869 62.8935 13.108 62.9702 14.625H57.831C57.6861 13.6449 57.3026 12.8565 56.6804 12.2599C56.0668 11.6548 55.2614 11.3523 54.2642 11.3523C53.4205 11.3523 52.6833 11.5824 52.0526 12.0426C51.4304 12.4943 50.9446 13.1548 50.5952 14.0241C50.2458 14.8935 50.071 15.946 50.071 17.1818C50.071 18.4347 50.2415 19.5 50.5824 20.3778C50.9318 21.2557 51.4219 21.9247 52.0526 22.3849C52.6833 22.8452 53.4205 23.0753 54.2642 23.0753C54.8864 23.0753 55.4446 22.9474 55.9389 22.6918C56.4418 22.4361 56.8551 22.0653 57.179 21.5795C57.5114 21.0852 57.7287 20.4929 57.831 19.8026H62.9702C62.885 21.3026 62.4759 22.6236 61.7429 23.7656C61.0185 24.8991 60.0171 25.7855 58.7386 26.4247C57.4602 27.0639 55.9475 27.3835 54.2003 27.3835ZM72.6231 15.6477V27H67.177V0.818181H72.4697V10.8281H72.6998C73.143 9.66903 73.8589 8.76136 74.8475 8.10511C75.8361 7.44034 77.0762 7.10795 78.5677 7.10795C79.9313 7.10795 81.1202 7.40625 82.1344 8.00284C83.1572 8.59091 83.9498 9.43892 84.5123 10.5469C85.0833 11.6463 85.3646 12.9631 85.356 14.4972V27H79.91V15.4688C79.9185 14.2585 79.6117 13.3168 78.9895 12.6435C78.3759 11.9702 77.5151 11.6335 76.4072 11.6335C75.6657 11.6335 75.0094 11.7912 74.4384 12.1065C73.8759 12.4219 73.4327 12.8821 73.1089 13.4872C72.7935 14.0838 72.6316 14.804 72.6231 15.6477ZM93.3661 0.818181L99.6943 20.7102H99.9372L106.278 0.818181H112.414L103.389 27H96.2554L87.217 0.818181H93.3661ZM122.917 27.3835C120.898 27.3835 119.159 26.9744 117.702 26.1562C116.253 25.3295 115.136 24.1619 114.352 22.6534C113.568 21.1364 113.176 19.3423 113.176 17.2713C113.176 15.2514 113.568 13.4787 114.352 11.9531C115.136 10.4276 116.24 9.23864 117.663 8.38636C119.095 7.53409 120.774 7.10795 122.7 7.10795C123.996 7.10795 125.202 7.31676 126.318 7.73438C127.443 8.14347 128.423 8.76136 129.258 9.58807C130.102 10.4148 130.758 11.4545 131.227 12.7074C131.696 13.9517 131.93 15.4091 131.93 17.0795V18.5753H115.349V15.2003H126.804C126.804 14.4162 126.633 13.7216 126.292 13.1165C125.952 12.5114 125.479 12.0384 124.873 11.6974C124.277 11.348 123.582 11.1733 122.79 11.1733C121.963 11.1733 121.23 11.3651 120.591 11.7486C119.96 12.1236 119.466 12.6307 119.108 13.2699C118.75 13.9006 118.567 14.6037 118.558 15.3793V18.5881C118.558 19.5597 118.737 20.3991 119.095 21.1065C119.462 21.8139 119.977 22.3594 120.642 22.7429C121.307 23.1264 122.095 23.3182 123.007 23.3182C123.612 23.3182 124.166 23.233 124.669 23.0625C125.172 22.892 125.602 22.6364 125.96 22.2955C126.318 21.9545 126.591 21.5369 126.778 21.0426L131.815 21.375C131.56 22.5852 131.035 23.642 130.243 24.5455C129.459 25.4403 128.444 26.1392 127.2 26.642C125.964 27.1364 124.537 27.3835 122.917 27.3835ZM141.65 15.6477V27H136.204V7.36364H141.395V10.8281H141.625C142.059 9.68608 142.788 8.78267 143.811 8.1179C144.834 7.4446 146.074 7.10795 147.531 7.10795C148.895 7.10795 150.084 7.40625 151.098 8.00284C152.112 8.59943 152.9 9.4517 153.463 10.5597C154.025 11.6591 154.307 12.9716 154.307 14.4972V27H148.86V15.4688C148.869 14.267 148.562 13.3295 147.94 12.6562C147.318 11.9744 146.461 11.6335 145.37 11.6335C144.637 11.6335 143.99 11.7912 143.427 12.1065C142.873 12.4219 142.439 12.8821 142.123 13.4872C141.816 14.0838 141.659 14.804 141.65 15.6477ZM169.763 7.36364V11.4545H157.938V7.36364H169.763ZM160.623 2.65909H166.069V20.9659C166.069 21.4687 166.145 21.8608 166.299 22.142C166.452 22.4148 166.665 22.6065 166.938 22.7173C167.219 22.8281 167.543 22.8835 167.91 22.8835C168.165 22.8835 168.421 22.8622 168.677 22.8196C168.932 22.7685 169.128 22.7301 169.265 22.7045L170.121 26.7571C169.849 26.8423 169.465 26.9403 168.971 27.0511C168.476 27.1705 167.876 27.2429 167.168 27.2685C165.856 27.3196 164.705 27.1449 163.716 26.7443C162.736 26.3437 161.974 25.7216 161.428 24.8778C160.883 24.0341 160.614 22.9687 160.623 21.6818V2.65909ZM186.623 18.6392V7.36364H192.069V27H186.841V23.4332H186.636C186.193 24.5838 185.456 25.5085 184.424 26.2074C183.402 26.9062 182.153 27.2557 180.679 27.2557C179.366 27.2557 178.211 26.9574 177.214 26.3608C176.217 25.7642 175.437 24.9162 174.875 23.8168C174.321 22.7173 174.039 21.4006 174.031 19.8665V7.36364H179.477V18.8949C179.485 20.054 179.797 20.9702 180.41 21.6435C181.024 22.3168 181.846 22.6534 182.878 22.6534C183.534 22.6534 184.147 22.5043 184.718 22.206C185.289 21.8991 185.75 21.4474 186.099 20.8509C186.457 20.2543 186.632 19.517 186.623 18.6392ZM197.145 27V7.36364H202.425V10.7898H202.63C202.988 9.57102 203.589 8.65057 204.432 8.02841C205.276 7.39773 206.248 7.08239 207.347 7.08239C207.62 7.08239 207.914 7.09943 208.229 7.13352C208.545 7.16761 208.822 7.21449 209.06 7.27415V12.1065C208.805 12.0298 208.451 11.9616 207.999 11.902C207.547 11.8423 207.134 11.8125 206.759 11.8125C205.958 11.8125 205.242 11.9872 204.611 12.3366C203.989 12.6776 203.495 13.1548 203.128 13.7685C202.77 14.3821 202.592 15.0895 202.592 15.8906V27H197.145ZM220.631 27.3835C218.611 27.3835 216.872 26.9744 215.415 26.1562C213.966 25.3295 212.849 24.1619 212.065 22.6534C211.281 21.1364 210.889 19.3423 210.889 17.2713C210.889 15.2514 211.281 13.4787 212.065 11.9531C212.849 10.4276 213.953 9.23864 215.376 8.38636C216.808 7.53409 218.487 7.10795 220.413 7.10795C221.709 7.10795 222.915 7.31676 224.031 7.73438C225.156 8.14347 226.136 8.76136 226.972 9.58807C227.815 10.4148 228.472 11.4545 228.94 12.7074C229.409 13.9517 229.644 15.4091 229.644 17.0795V18.5753H213.063V15.2003H224.517C224.517 14.4162 224.347 13.7216 224.006 13.1165C223.665 12.5114 223.192 12.0384 222.587 11.6974C221.99 11.348 221.296 11.1733 220.503 11.1733C219.676 11.1733 218.943 11.3651 218.304 11.7486C217.673 12.1236 217.179 12.6307 216.821 13.2699C216.463 13.9006 216.28 14.6037 216.271 15.3793V18.5881C216.271 19.5597 216.45 20.3991 216.808 21.1065C217.175 21.8139 217.69 22.3594 218.355 22.7429C219.02 23.1264 219.808 23.3182 220.72 23.3182C221.325 23.3182 221.879 23.233 222.382 23.0625C222.885 22.892 223.315 22.6364 223.673 22.2955C224.031 21.9545 224.304 21.5369 224.492 21.0426L229.528 21.375C229.273 22.5852 228.749 23.642 227.956 24.5455C227.172 25.4403 226.158 26.1392 224.913 26.642C223.678 27.1364 222.25 27.3835 220.631 27.3835Z" fill="#2064EF"/>
</svg>
